<mxfile host="app.diagrams.net" modified="2024-06-20T16:00:57.202Z" agent="Mozilla/5.0 (X11; Ubuntu; Linux x86_64; rv:123.0) Gecko/20100101 Firefox/123.0" etag="JWYVpcouLEyf2EBO8Nyw" version="24.5.5" type="device">
  <diagram name="PÃ¡gina-1" id="pnkKG1xDQ4r84PMHm7d6">
    <mxGraphModel dx="1705" dy="994" grid="1" gridSize="10" guides="1" tooltips="1" connect="1" arrows="1" fold="1" page="1" pageScale="1" pageWidth="827" pageHeight="1169" math="0" shadow="0">
      <root>
        <mxCell id="0" />
        <mxCell id="1" parent="0" />
        <mxCell id="k2xtMvNpg32Ia1_yo8kl-7" style="edgeStyle=orthogonalEdgeStyle;rounded=0;orthogonalLoop=1;jettySize=auto;html=1;exitX=0;exitY=0.7;exitDx=0;exitDy=0;exitPerimeter=0;endArrow=none;endFill=0;" parent="1" source="k2xtMvNpg32Ia1_yo8kl-1" edge="1">
          <mxGeometry relative="1" as="geometry">
            <mxPoint x="260" y="180" as="targetPoint" />
          </mxGeometry>
        </mxCell>
        <mxCell id="k2xtMvNpg32Ia1_yo8kl-8" style="edgeStyle=orthogonalEdgeStyle;rounded=0;orthogonalLoop=1;jettySize=auto;html=1;exitX=0;exitY=0.3;exitDx=0;exitDy=0;exitPerimeter=0;endArrow=none;endFill=0;" parent="1" source="k2xtMvNpg32Ia1_yo8kl-1" edge="1">
          <mxGeometry relative="1" as="geometry">
            <mxPoint x="260" y="140" as="targetPoint" />
          </mxGeometry>
        </mxCell>
        <mxCell id="QnQLokl2paKiinl1mr7T-45" style="edgeStyle=orthogonalEdgeStyle;rounded=0;orthogonalLoop=1;jettySize=auto;html=1;exitX=0.5;exitY=1;exitDx=0;exitDy=0;exitPerimeter=0;endArrow=oval;endFill=1;" edge="1" parent="1">
          <mxGeometry relative="1" as="geometry">
            <mxPoint x="414" y="245" as="targetPoint" />
            <mxPoint x="413.99" y="205" as="sourcePoint" />
            <Array as="points">
              <mxPoint x="413.99" y="235" />
              <mxPoint x="413.99" y="235" />
            </Array>
          </mxGeometry>
        </mxCell>
        <mxCell id="QnQLokl2paKiinl1mr7T-54" style="edgeStyle=orthogonalEdgeStyle;rounded=0;orthogonalLoop=1;jettySize=auto;html=1;exitX=0.5;exitY=0;exitDx=0;exitDy=0;exitPerimeter=0;endArrow=oval;endFill=1;" edge="1" parent="1" source="k2xtMvNpg32Ia1_yo8kl-1">
          <mxGeometry relative="1" as="geometry">
            <mxPoint x="413.79999999999995" y="40" as="targetPoint" />
          </mxGeometry>
        </mxCell>
        <mxCell id="QnQLokl2paKiinl1mr7T-58" style="edgeStyle=orthogonalEdgeStyle;rounded=0;orthogonalLoop=1;jettySize=auto;html=1;exitX=1;exitY=0.3;exitDx=0;exitDy=0;exitPerimeter=0;endArrow=none;endFill=0;entryX=0.25;entryY=1;entryDx=0;entryDy=0;" edge="1" parent="1" source="k2xtMvNpg32Ia1_yo8kl-1" target="QnQLokl2paKiinl1mr7T-62">
          <mxGeometry relative="1" as="geometry">
            <mxPoint x="1080" y="80" as="targetPoint" />
            <Array as="points">
              <mxPoint x="464" y="80" />
              <mxPoint x="1160" y="80" />
              <mxPoint x="1160" y="158" />
            </Array>
          </mxGeometry>
        </mxCell>
        <mxCell id="k2xtMvNpg32Ia1_yo8kl-1" value="" style="verticalLabelPosition=bottom;shadow=0;dashed=0;align=center;html=1;verticalAlign=top;shape=mxgraph.electrical.logic_gates.jk_flip-flop_with_sr;" parent="1" vertex="1">
          <mxGeometry x="364" y="110" width="100" height="100" as="geometry" />
        </mxCell>
        <mxCell id="k2xtMvNpg32Ia1_yo8kl-4" style="edgeStyle=orthogonalEdgeStyle;rounded=0;orthogonalLoop=1;jettySize=auto;html=1;exitX=0.9;exitY=0.5;exitDx=0;exitDy=0;exitPerimeter=0;endArrow=none;endFill=0;entryX=0;entryY=0.5;entryDx=0;entryDy=0;entryPerimeter=0;" parent="1" source="k2xtMvNpg32Ia1_yo8kl-2" target="k2xtMvNpg32Ia1_yo8kl-1" edge="1">
          <mxGeometry relative="1" as="geometry">
            <mxPoint x="250" y="150" as="targetPoint" />
            <Array as="points">
              <mxPoint x="149" y="160" />
            </Array>
          </mxGeometry>
        </mxCell>
        <mxCell id="k2xtMvNpg32Ia1_yo8kl-2" value="" style="verticalLabelPosition=bottom;shadow=0;dashed=0;align=center;html=1;verticalAlign=top;shape=mxgraph.electrical.logic_gates.inverting_contact;" parent="1" vertex="1">
          <mxGeometry x="140" y="155" width="10" height="10" as="geometry" />
        </mxCell>
        <mxCell id="k2xtMvNpg32Ia1_yo8kl-3" value="Clk" style="text;strokeColor=none;align=center;fillColor=none;html=1;verticalAlign=middle;whiteSpace=wrap;rounded=0;fontSize=10;" parent="1" vertex="1">
          <mxGeometry x="80" y="145" width="60" height="30" as="geometry" />
        </mxCell>
        <mxCell id="k2xtMvNpg32Ia1_yo8kl-9" value="1" style="text;strokeColor=none;align=center;fillColor=none;html=1;verticalAlign=middle;whiteSpace=wrap;rounded=0;fontSize=10;" parent="1" vertex="1">
          <mxGeometry x="220" y="165" width="60" height="30" as="geometry" />
        </mxCell>
        <mxCell id="k2xtMvNpg32Ia1_yo8kl-10" value="1" style="text;strokeColor=none;align=center;fillColor=none;html=1;verticalAlign=middle;whiteSpace=wrap;rounded=0;fontSize=10;" parent="1" vertex="1">
          <mxGeometry x="220" y="125" width="60" height="30" as="geometry" />
        </mxCell>
        <mxCell id="QnQLokl2paKiinl1mr7T-1" value="" style="verticalLabelPosition=bottom;shadow=0;dashed=0;align=center;html=1;verticalAlign=top;shape=mxgraph.electrical.logic_gates.inverting_contact;" vertex="1" parent="1">
          <mxGeometry x="140" y="240" width="10" height="10" as="geometry" />
        </mxCell>
        <mxCell id="QnQLokl2paKiinl1mr7T-2" value="&lt;div&gt;Pos0&lt;/div&gt;" style="text;strokeColor=none;align=center;fillColor=none;html=1;verticalAlign=middle;whiteSpace=wrap;rounded=0;fontSize=10;" vertex="1" parent="1">
          <mxGeometry x="80" y="230" width="60" height="30" as="geometry" />
        </mxCell>
        <mxCell id="QnQLokl2paKiinl1mr7T-3" value="" style="verticalLabelPosition=bottom;shadow=0;dashed=0;align=center;html=1;verticalAlign=top;shape=mxgraph.electrical.logic_gates.inverting_contact;" vertex="1" parent="1">
          <mxGeometry x="140" y="310" width="10" height="10" as="geometry" />
        </mxCell>
        <mxCell id="QnQLokl2paKiinl1mr7T-4" value="&lt;div&gt;Pos5&lt;/div&gt;" style="text;strokeColor=none;align=center;fillColor=none;html=1;verticalAlign=middle;whiteSpace=wrap;rounded=0;fontSize=10;" vertex="1" parent="1">
          <mxGeometry x="80" y="300" width="60" height="30" as="geometry" />
        </mxCell>
        <mxCell id="QnQLokl2paKiinl1mr7T-9" style="edgeStyle=orthogonalEdgeStyle;rounded=0;orthogonalLoop=1;jettySize=auto;html=1;exitX=0;exitY=0.5;exitDx=0;exitDy=0;exitPerimeter=0;endArrow=oval;endFill=1;" edge="1" parent="1" source="QnQLokl2paKiinl1mr7T-5">
          <mxGeometry relative="1" as="geometry">
            <mxPoint x="310" y="160.33333333333337" as="targetPoint" />
            <Array as="points">
              <mxPoint x="530" y="160" />
              <mxPoint x="530" y="60" />
              <mxPoint x="310" y="60" />
            </Array>
          </mxGeometry>
        </mxCell>
        <mxCell id="QnQLokl2paKiinl1mr7T-5" value="" style="verticalLabelPosition=bottom;shadow=0;dashed=0;align=center;html=1;verticalAlign=top;shape=mxgraph.electrical.logic_gates.jk_flip-flop_with_sr;" vertex="1" parent="1">
          <mxGeometry x="660" y="110" width="100" height="100" as="geometry" />
        </mxCell>
        <mxCell id="QnQLokl2paKiinl1mr7T-36" style="edgeStyle=orthogonalEdgeStyle;rounded=0;orthogonalLoop=1;jettySize=auto;html=1;exitX=0;exitY=0.5;exitDx=0;exitDy=0;exitPerimeter=0;endArrow=none;endFill=0;" edge="1" parent="1" source="QnQLokl2paKiinl1mr7T-6">
          <mxGeometry relative="1" as="geometry">
            <mxPoint x="640.0000000000002" y="60" as="targetPoint" />
          </mxGeometry>
        </mxCell>
        <mxCell id="QnQLokl2paKiinl1mr7T-6" value="" style="verticalLabelPosition=bottom;shadow=0;dashed=0;align=center;html=1;verticalAlign=top;shape=mxgraph.electrical.logic_gates.jk_flip-flop_with_sr;" vertex="1" parent="1">
          <mxGeometry x="660" y="250" width="100" height="100" as="geometry" />
        </mxCell>
        <mxCell id="QnQLokl2paKiinl1mr7T-13" style="edgeStyle=orthogonalEdgeStyle;rounded=0;orthogonalLoop=1;jettySize=auto;html=1;exitX=1;exitY=0.3;exitDx=0;exitDy=0;exitPerimeter=0;entryX=0;entryY=0.75;entryDx=0;entryDy=0;entryPerimeter=0;endArrow=none;endFill=0;" edge="1" parent="1" source="QnQLokl2paKiinl1mr7T-7" target="QnQLokl2paKiinl1mr7T-14">
          <mxGeometry relative="1" as="geometry">
            <mxPoint x="530" y="310" as="targetPoint" />
            <Array as="points">
              <mxPoint x="780" y="505" />
              <mxPoint x="780" y="440" />
              <mxPoint x="500" y="440" />
              <mxPoint x="500" y="335" />
            </Array>
          </mxGeometry>
        </mxCell>
        <mxCell id="QnQLokl2paKiinl1mr7T-35" style="edgeStyle=orthogonalEdgeStyle;rounded=0;orthogonalLoop=1;jettySize=auto;html=1;exitX=0;exitY=0.7;exitDx=0;exitDy=0;exitPerimeter=0;endArrow=oval;endFill=1;" edge="1" parent="1" source="QnQLokl2paKiinl1mr7T-7">
          <mxGeometry relative="1" as="geometry">
            <mxPoint x="460" y="325" as="targetPoint" />
            <mxPoint x="660" y="540" as="sourcePoint" />
          </mxGeometry>
        </mxCell>
        <mxCell id="QnQLokl2paKiinl1mr7T-37" style="edgeStyle=orthogonalEdgeStyle;rounded=0;orthogonalLoop=1;jettySize=auto;html=1;exitX=0;exitY=0.5;exitDx=0;exitDy=0;exitPerimeter=0;endArrow=oval;endFill=1;" edge="1" parent="1" source="QnQLokl2paKiinl1mr7T-7">
          <mxGeometry relative="1" as="geometry">
            <mxPoint x="640" y="300" as="targetPoint" />
          </mxGeometry>
        </mxCell>
        <mxCell id="QnQLokl2paKiinl1mr7T-46" style="edgeStyle=orthogonalEdgeStyle;rounded=0;orthogonalLoop=1;jettySize=auto;html=1;exitX=0.5;exitY=1;exitDx=0;exitDy=0;exitPerimeter=0;endArrow=oval;endFill=1;" edge="1" parent="1">
          <mxGeometry relative="1" as="geometry">
            <mxPoint x="400" y="245" as="targetPoint" />
            <mxPoint x="710" y="570" as="sourcePoint" />
            <Array as="points">
              <mxPoint x="710" y="580" />
              <mxPoint x="400" y="580" />
            </Array>
          </mxGeometry>
        </mxCell>
        <mxCell id="QnQLokl2paKiinl1mr7T-7" value="" style="verticalLabelPosition=bottom;shadow=0;dashed=0;align=center;html=1;verticalAlign=top;shape=mxgraph.electrical.logic_gates.jk_flip-flop_with_sr;" vertex="1" parent="1">
          <mxGeometry x="660" y="475" width="100" height="100" as="geometry" />
        </mxCell>
        <mxCell id="QnQLokl2paKiinl1mr7T-8" style="edgeStyle=orthogonalEdgeStyle;rounded=0;orthogonalLoop=1;jettySize=auto;html=1;exitX=1;exitY=0.7;exitDx=0;exitDy=0;exitPerimeter=0;entryX=0;entryY=0.7;entryDx=0;entryDy=0;entryPerimeter=0;endArrow=none;endFill=0;" edge="1" parent="1" source="k2xtMvNpg32Ia1_yo8kl-1" target="QnQLokl2paKiinl1mr7T-5">
          <mxGeometry relative="1" as="geometry" />
        </mxCell>
        <mxCell id="QnQLokl2paKiinl1mr7T-11" style="edgeStyle=orthogonalEdgeStyle;rounded=0;orthogonalLoop=1;jettySize=auto;html=1;exitX=0;exitY=0.25;exitDx=0;exitDy=0;exitPerimeter=0;endArrow=oval;endFill=1;" edge="1" parent="1" source="QnQLokl2paKiinl1mr7T-10">
          <mxGeometry relative="1" as="geometry">
            <mxPoint x="480" y="180" as="targetPoint" />
          </mxGeometry>
        </mxCell>
        <mxCell id="QnQLokl2paKiinl1mr7T-10" value="" style="verticalLabelPosition=bottom;shadow=0;dashed=0;align=center;html=1;verticalAlign=top;shape=mxgraph.electrical.logic_gates.logic_gate;operation=and;" vertex="1" parent="1">
          <mxGeometry x="500" y="240" width="30" height="20" as="geometry" />
        </mxCell>
        <mxCell id="QnQLokl2paKiinl1mr7T-12" style="edgeStyle=orthogonalEdgeStyle;rounded=0;orthogonalLoop=1;jettySize=auto;html=1;exitX=1;exitY=0.3;exitDx=0;exitDy=0;exitPerimeter=0;entryX=0;entryY=0.75;entryDx=0;entryDy=0;entryPerimeter=0;endArrow=none;endFill=0;" edge="1" parent="1" source="QnQLokl2paKiinl1mr7T-6" target="QnQLokl2paKiinl1mr7T-10">
          <mxGeometry relative="1" as="geometry">
            <Array as="points">
              <mxPoint x="760" y="240" />
              <mxPoint x="580" y="240" />
              <mxPoint x="580" y="280" />
              <mxPoint x="480" y="280" />
              <mxPoint x="480" y="255" />
            </Array>
          </mxGeometry>
        </mxCell>
        <mxCell id="QnQLokl2paKiinl1mr7T-14" value="" style="verticalLabelPosition=bottom;shadow=0;dashed=0;align=center;html=1;verticalAlign=top;shape=mxgraph.electrical.logic_gates.logic_gate;operation=and;" vertex="1" parent="1">
          <mxGeometry x="500" y="320" width="30" height="20" as="geometry" />
        </mxCell>
        <mxCell id="QnQLokl2paKiinl1mr7T-15" style="edgeStyle=orthogonalEdgeStyle;rounded=0;orthogonalLoop=1;jettySize=auto;html=1;exitX=0;exitY=0.25;exitDx=0;exitDy=0;exitPerimeter=0;entryX=0.922;entryY=0.702;entryDx=0;entryDy=0;entryPerimeter=0;endArrow=oval;endFill=1;" edge="1" parent="1" source="QnQLokl2paKiinl1mr7T-14" target="k2xtMvNpg32Ia1_yo8kl-1">
          <mxGeometry relative="1" as="geometry" />
        </mxCell>
        <mxCell id="QnQLokl2paKiinl1mr7T-16" value="FF3" style="text;strokeColor=none;align=center;fillColor=none;html=1;verticalAlign=middle;whiteSpace=wrap;rounded=0;" vertex="1" parent="1">
          <mxGeometry x="680" y="510" width="60" height="30" as="geometry" />
        </mxCell>
        <mxCell id="QnQLokl2paKiinl1mr7T-17" value="FF2" style="text;strokeColor=none;align=center;fillColor=none;html=1;verticalAlign=middle;whiteSpace=wrap;rounded=0;" vertex="1" parent="1">
          <mxGeometry x="680" y="285" width="60" height="30" as="geometry" />
        </mxCell>
        <mxCell id="QnQLokl2paKiinl1mr7T-18" value="FF1" style="text;strokeColor=none;align=center;fillColor=none;html=1;verticalAlign=middle;whiteSpace=wrap;rounded=0;" vertex="1" parent="1">
          <mxGeometry x="680" y="145" width="60" height="30" as="geometry" />
        </mxCell>
        <mxCell id="QnQLokl2paKiinl1mr7T-19" value="FF0" style="text;strokeColor=none;align=center;fillColor=none;html=1;verticalAlign=middle;whiteSpace=wrap;rounded=0;" vertex="1" parent="1">
          <mxGeometry x="384" y="145" width="60" height="30" as="geometry" />
        </mxCell>
        <mxCell id="QnQLokl2paKiinl1mr7T-20" style="edgeStyle=orthogonalEdgeStyle;rounded=0;orthogonalLoop=1;jettySize=auto;html=1;exitX=1;exitY=0.5;exitDx=0;exitDy=0;exitPerimeter=0;entryX=0;entryY=0.3;entryDx=0;entryDy=0;entryPerimeter=0;endArrow=none;endFill=0;" edge="1" parent="1" source="QnQLokl2paKiinl1mr7T-14" target="QnQLokl2paKiinl1mr7T-6">
          <mxGeometry relative="1" as="geometry">
            <Array as="points">
              <mxPoint x="590" y="330" />
              <mxPoint x="590" y="280" />
            </Array>
          </mxGeometry>
        </mxCell>
        <mxCell id="QnQLokl2paKiinl1mr7T-23" style="edgeStyle=orthogonalEdgeStyle;rounded=0;orthogonalLoop=1;jettySize=auto;html=1;exitX=0;exitY=0.75;exitDx=0;exitDy=0;exitPerimeter=0;endArrow=oval;endFill=1;" edge="1" parent="1" source="QnQLokl2paKiinl1mr7T-21">
          <mxGeometry relative="1" as="geometry">
            <mxPoint x="570" y="330" as="targetPoint" />
            <Array as="points">
              <mxPoint x="570" y="145" />
              <mxPoint x="570" y="240" />
              <mxPoint x="571" y="240" />
              <mxPoint x="571" y="330" />
            </Array>
          </mxGeometry>
        </mxCell>
        <mxCell id="QnQLokl2paKiinl1mr7T-21" value="" style="verticalLabelPosition=bottom;shadow=0;dashed=0;align=center;html=1;verticalAlign=top;shape=mxgraph.electrical.logic_gates.logic_gate;operation=or;" vertex="1" parent="1">
          <mxGeometry x="580" y="130" width="30" height="20" as="geometry" />
        </mxCell>
        <mxCell id="QnQLokl2paKiinl1mr7T-22" style="edgeStyle=orthogonalEdgeStyle;rounded=0;orthogonalLoop=1;jettySize=auto;html=1;exitX=1;exitY=0.5;exitDx=0;exitDy=0;exitPerimeter=0;entryX=0;entryY=0.25;entryDx=0;entryDy=0;entryPerimeter=0;endArrow=none;endFill=0;" edge="1" parent="1" source="QnQLokl2paKiinl1mr7T-10" target="QnQLokl2paKiinl1mr7T-21">
          <mxGeometry relative="1" as="geometry">
            <Array as="points">
              <mxPoint x="560" y="250" />
              <mxPoint x="560" y="135" />
            </Array>
          </mxGeometry>
        </mxCell>
        <mxCell id="QnQLokl2paKiinl1mr7T-25" style="edgeStyle=orthogonalEdgeStyle;rounded=0;orthogonalLoop=1;jettySize=auto;html=1;exitX=0;exitY=0.25;exitDx=0;exitDy=0;exitPerimeter=0;endArrow=oval;endFill=1;" edge="1" parent="1" source="QnQLokl2paKiinl1mr7T-24">
          <mxGeometry relative="1" as="geometry">
            <mxPoint x="600" y="180" as="targetPoint" />
            <Array as="points">
              <mxPoint x="580" y="340" />
              <mxPoint x="600" y="340" />
            </Array>
          </mxGeometry>
        </mxCell>
        <mxCell id="QnQLokl2paKiinl1mr7T-24" value="" style="verticalLabelPosition=bottom;shadow=0;dashed=0;align=center;html=1;verticalAlign=top;shape=mxgraph.electrical.logic_gates.logic_gate;operation=and;" vertex="1" parent="1">
          <mxGeometry x="580" y="350" width="30" height="20" as="geometry" />
        </mxCell>
        <mxCell id="QnQLokl2paKiinl1mr7T-26" style="edgeStyle=orthogonalEdgeStyle;rounded=0;orthogonalLoop=1;jettySize=auto;html=1;exitX=1;exitY=0.3;exitDx=0;exitDy=0;exitPerimeter=0;entryX=0;entryY=0.75;entryDx=0;entryDy=0;entryPerimeter=0;endArrow=none;endFill=0;" edge="1" parent="1" source="QnQLokl2paKiinl1mr7T-5" target="QnQLokl2paKiinl1mr7T-24">
          <mxGeometry relative="1" as="geometry">
            <Array as="points">
              <mxPoint x="810" y="140" />
              <mxPoint x="810" y="390" />
              <mxPoint x="560" y="390" />
              <mxPoint x="560" y="365" />
            </Array>
          </mxGeometry>
        </mxCell>
        <mxCell id="QnQLokl2paKiinl1mr7T-27" style="edgeStyle=orthogonalEdgeStyle;rounded=0;orthogonalLoop=1;jettySize=auto;html=1;exitX=1;exitY=0.5;exitDx=0;exitDy=0;exitPerimeter=0;entryX=0;entryY=0.7;entryDx=0;entryDy=0;entryPerimeter=0;endArrow=none;endFill=0;" edge="1" parent="1" source="QnQLokl2paKiinl1mr7T-24" target="QnQLokl2paKiinl1mr7T-6">
          <mxGeometry relative="1" as="geometry">
            <Array as="points">
              <mxPoint x="610" y="320" />
              <mxPoint x="610" y="320" />
            </Array>
          </mxGeometry>
        </mxCell>
        <mxCell id="QnQLokl2paKiinl1mr7T-28" value="" style="verticalLabelPosition=bottom;shadow=0;dashed=0;align=center;html=1;verticalAlign=top;shape=mxgraph.electrical.logic_gates.logic_gate;operation=and;" vertex="1" parent="1">
          <mxGeometry x="590" y="495" width="30" height="20" as="geometry" />
        </mxCell>
        <mxCell id="QnQLokl2paKiinl1mr7T-29" style="edgeStyle=orthogonalEdgeStyle;rounded=0;orthogonalLoop=1;jettySize=auto;html=1;exitX=0;exitY=0.25;exitDx=0;exitDy=0;exitPerimeter=0;entryX=1;entryY=0.5;entryDx=0;entryDy=0;entryPerimeter=0;endArrow=oval;endFill=1;" edge="1" parent="1" source="QnQLokl2paKiinl1mr7T-28" target="QnQLokl2paKiinl1mr7T-24">
          <mxGeometry relative="1" as="geometry">
            <Array as="points">
              <mxPoint x="560" y="500" />
              <mxPoint x="560" y="400" />
              <mxPoint x="610" y="400" />
            </Array>
          </mxGeometry>
        </mxCell>
        <mxCell id="QnQLokl2paKiinl1mr7T-30" style="edgeStyle=orthogonalEdgeStyle;rounded=0;orthogonalLoop=1;jettySize=auto;html=1;exitX=1;exitY=0.7;exitDx=0;exitDy=0;exitPerimeter=0;entryX=0;entryY=0.75;entryDx=0;entryDy=0;entryPerimeter=0;endArrow=none;endFill=0;" edge="1" parent="1" source="QnQLokl2paKiinl1mr7T-6" target="QnQLokl2paKiinl1mr7T-28">
          <mxGeometry relative="1" as="geometry">
            <mxPoint x="710" y="320" as="sourcePoint" />
            <mxPoint x="630" y="510" as="targetPoint" />
            <Array as="points">
              <mxPoint x="760" y="410" />
              <mxPoint x="520" y="410" />
              <mxPoint x="520" y="510" />
            </Array>
          </mxGeometry>
        </mxCell>
        <mxCell id="QnQLokl2paKiinl1mr7T-33" style="edgeStyle=orthogonalEdgeStyle;rounded=0;orthogonalLoop=1;jettySize=auto;html=1;exitX=1;exitY=0.5;exitDx=0;exitDy=0;exitPerimeter=0;entryX=0;entryY=0.3;entryDx=0;entryDy=0;entryPerimeter=0;endArrow=none;endFill=0;" edge="1" parent="1" source="QnQLokl2paKiinl1mr7T-21" target="QnQLokl2paKiinl1mr7T-5">
          <mxGeometry relative="1" as="geometry" />
        </mxCell>
        <mxCell id="QnQLokl2paKiinl1mr7T-34" style="edgeStyle=orthogonalEdgeStyle;rounded=0;orthogonalLoop=1;jettySize=auto;html=1;exitX=1;exitY=0.5;exitDx=0;exitDy=0;exitPerimeter=0;entryX=0;entryY=0.3;entryDx=0;entryDy=0;entryPerimeter=0;endArrow=none;endFill=0;" edge="1" parent="1" source="QnQLokl2paKiinl1mr7T-28" target="QnQLokl2paKiinl1mr7T-7">
          <mxGeometry relative="1" as="geometry" />
        </mxCell>
        <mxCell id="QnQLokl2paKiinl1mr7T-38" value="" style="edgeStyle=none;orthogonalLoop=1;jettySize=auto;html=1;rounded=0;endArrow=oval;endFill=1;" edge="1" parent="1">
          <mxGeometry width="80" relative="1" as="geometry">
            <mxPoint x="640" y="60" as="sourcePoint" />
            <mxPoint x="530" y="60" as="targetPoint" />
            <Array as="points" />
          </mxGeometry>
        </mxCell>
        <mxCell id="QnQLokl2paKiinl1mr7T-50" style="edgeStyle=orthogonalEdgeStyle;rounded=0;orthogonalLoop=1;jettySize=auto;html=1;exitX=0;exitY=0.25;exitDx=0;exitDy=0;exitPerimeter=0;endArrow=oval;endFill=1;" edge="1" parent="1" source="QnQLokl2paKiinl1mr7T-39">
          <mxGeometry relative="1" as="geometry">
            <mxPoint x="200" y="244.5" as="targetPoint" />
            <mxPoint x="235" y="269.5" as="sourcePoint" />
            <Array as="points">
              <mxPoint x="201" y="275" />
              <mxPoint x="201" y="245" />
            </Array>
          </mxGeometry>
        </mxCell>
        <mxCell id="QnQLokl2paKiinl1mr7T-39" value="" style="verticalLabelPosition=bottom;shadow=0;dashed=0;align=center;html=1;verticalAlign=top;shape=mxgraph.electrical.logic_gates.logic_gate;operation=or;" vertex="1" parent="1">
          <mxGeometry x="235" y="270" width="30" height="20" as="geometry" />
        </mxCell>
        <mxCell id="QnQLokl2paKiinl1mr7T-44" style="edgeStyle=orthogonalEdgeStyle;rounded=0;orthogonalLoop=1;jettySize=auto;html=1;exitX=0.5;exitY=1;exitDx=0;exitDy=0;exitPerimeter=0;entryX=0.9;entryY=0.5;entryDx=0;entryDy=0;entryPerimeter=0;endArrow=none;endFill=0;" edge="1" parent="1" source="QnQLokl2paKiinl1mr7T-6" target="QnQLokl2paKiinl1mr7T-1">
          <mxGeometry relative="1" as="geometry">
            <Array as="points">
              <mxPoint x="710" y="380" />
              <mxPoint x="440" y="380" />
              <mxPoint x="440" y="245" />
            </Array>
          </mxGeometry>
        </mxCell>
        <mxCell id="QnQLokl2paKiinl1mr7T-47" style="edgeStyle=orthogonalEdgeStyle;rounded=0;orthogonalLoop=1;jettySize=auto;html=1;exitX=0.9;exitY=0.5;exitDx=0;exitDy=0;exitPerimeter=0;entryX=0;entryY=0.75;entryDx=0;entryDy=0;entryPerimeter=0;endArrow=none;endFill=0;" edge="1" parent="1" source="QnQLokl2paKiinl1mr7T-3" target="QnQLokl2paKiinl1mr7T-39">
          <mxGeometry relative="1" as="geometry" />
        </mxCell>
        <mxCell id="QnQLokl2paKiinl1mr7T-51" style="edgeStyle=orthogonalEdgeStyle;rounded=0;orthogonalLoop=1;jettySize=auto;html=1;exitX=1;exitY=0.5;exitDx=0;exitDy=0;exitPerimeter=0;entryX=0.5;entryY=1;entryDx=0;entryDy=0;entryPerimeter=0;endArrow=none;endFill=0;" edge="1" parent="1" source="QnQLokl2paKiinl1mr7T-39" target="QnQLokl2paKiinl1mr7T-5">
          <mxGeometry relative="1" as="geometry">
            <Array as="points">
              <mxPoint x="265" y="270" />
              <mxPoint x="620" y="270" />
              <mxPoint x="620" y="210" />
            </Array>
          </mxGeometry>
        </mxCell>
        <mxCell id="QnQLokl2paKiinl1mr7T-53" value="" style="edgeStyle=orthogonalEdgeStyle;orthogonalLoop=1;jettySize=auto;html=1;rounded=0;entryX=0.5;entryY=0;entryDx=0;entryDy=0;entryPerimeter=0;endArrow=none;endFill=0;" edge="1" parent="1" target="QnQLokl2paKiinl1mr7T-6">
          <mxGeometry width="80" relative="1" as="geometry">
            <mxPoint x="200" y="40" as="sourcePoint" />
            <mxPoint x="880" y="350" as="targetPoint" />
            <Array as="points">
              <mxPoint x="840" y="40" />
              <mxPoint x="840" y="250" />
            </Array>
          </mxGeometry>
        </mxCell>
        <mxCell id="QnQLokl2paKiinl1mr7T-55" value="" style="edgeStyle=orthogonalEdgeStyle;orthogonalLoop=1;jettySize=auto;html=1;rounded=0;endArrow=oval;endFill=1;" edge="1" parent="1">
          <mxGeometry width="80" relative="1" as="geometry">
            <mxPoint x="200" y="40" as="sourcePoint" />
            <mxPoint x="180" y="315" as="targetPoint" />
            <Array as="points">
              <mxPoint x="180" y="40" />
            </Array>
          </mxGeometry>
        </mxCell>
        <mxCell id="QnQLokl2paKiinl1mr7T-56" value="&lt;font style=&quot;font-size: 12px;&quot;&gt;0&lt;/font&gt;" style="text;strokeColor=none;align=center;fillColor=none;html=1;verticalAlign=middle;whiteSpace=wrap;rounded=0;fontSize=10;" vertex="1" parent="1">
          <mxGeometry x="680" y="80" width="60" height="30" as="geometry" />
        </mxCell>
        <mxCell id="QnQLokl2paKiinl1mr7T-57" value="&lt;font style=&quot;font-size: 12px;&quot;&gt;0&lt;/font&gt;" style="text;strokeColor=none;align=center;fillColor=none;html=1;verticalAlign=middle;whiteSpace=wrap;rounded=0;fontSize=10;" vertex="1" parent="1">
          <mxGeometry x="680" y="445" width="60" height="30" as="geometry" />
        </mxCell>
        <mxCell id="QnQLokl2paKiinl1mr7T-59" value="" style="edgeStyle=orthogonalEdgeStyle;orthogonalLoop=1;jettySize=auto;html=1;rounded=0;endArrow=oval;endFill=1;exitX=0.375;exitY=1.019;exitDx=0;exitDy=0;exitPerimeter=0;" edge="1" parent="1" source="QnQLokl2paKiinl1mr7T-62">
          <mxGeometry width="80" relative="1" as="geometry">
            <mxPoint x="1080" y="140" as="sourcePoint" />
            <mxPoint x="810" y="140" as="targetPoint" />
            <Array as="points">
              <mxPoint x="1060" y="179" />
              <mxPoint x="1060" y="140" />
            </Array>
          </mxGeometry>
        </mxCell>
        <mxCell id="QnQLokl2paKiinl1mr7T-60" value="" style="edgeStyle=orthogonalEdgeStyle;orthogonalLoop=1;jettySize=auto;html=1;rounded=0;endArrow=oval;endFill=1;exitX=0.5;exitY=1;exitDx=0;exitDy=0;" edge="1" parent="1" source="QnQLokl2paKiinl1mr7T-62">
          <mxGeometry width="80" relative="1" as="geometry">
            <mxPoint x="1070" y="280" as="sourcePoint" />
            <mxPoint x="760" y="279.78" as="targetPoint" />
            <Array as="points">
              <mxPoint x="1010" y="200" />
              <mxPoint x="1010" y="280" />
            </Array>
          </mxGeometry>
        </mxCell>
        <mxCell id="QnQLokl2paKiinl1mr7T-61" value="" style="edgeStyle=orthogonalEdgeStyle;orthogonalLoop=1;jettySize=auto;html=1;rounded=0;endArrow=oval;endFill=1;exitX=0.75;exitY=1;exitDx=0;exitDy=0;" edge="1" parent="1" source="QnQLokl2paKiinl1mr7T-62">
          <mxGeometry width="80" relative="1" as="geometry">
            <mxPoint x="1050" y="504.78" as="sourcePoint" />
            <mxPoint x="780" y="504.78" as="targetPoint" />
            <Array as="points">
              <mxPoint x="1100" y="243" />
              <mxPoint x="1100" y="505" />
            </Array>
          </mxGeometry>
        </mxCell>
        <mxCell id="QnQLokl2paKiinl1mr7T-64" style="edgeStyle=orthogonalEdgeStyle;rounded=0;orthogonalLoop=1;jettySize=auto;html=1;exitX=0;exitY=0;exitDx=0;exitDy=0;endArrow=none;endFill=0;" edge="1" parent="1">
          <mxGeometry relative="1" as="geometry">
            <mxPoint x="1420" y="120" as="targetPoint" />
            <mxPoint x="1260" y="120" as="sourcePoint" />
            <Array as="points">
              <mxPoint x="1375" y="120" />
            </Array>
          </mxGeometry>
        </mxCell>
        <mxCell id="QnQLokl2paKiinl1mr7T-65" style="edgeStyle=orthogonalEdgeStyle;rounded=0;orthogonalLoop=1;jettySize=auto;html=1;exitX=0.25;exitY=0;exitDx=0;exitDy=0;endArrow=none;endFill=0;" edge="1" parent="1" source="QnQLokl2paKiinl1mr7T-62">
          <mxGeometry relative="1" as="geometry">
            <mxPoint x="1420" y="157" as="targetPoint" />
          </mxGeometry>
        </mxCell>
        <mxCell id="QnQLokl2paKiinl1mr7T-66" style="edgeStyle=orthogonalEdgeStyle;rounded=0;orthogonalLoop=1;jettySize=auto;html=1;exitX=0.5;exitY=0;exitDx=0;exitDy=0;endArrow=none;endFill=0;" edge="1" parent="1" source="QnQLokl2paKiinl1mr7T-62">
          <mxGeometry relative="1" as="geometry">
            <mxPoint x="1420" y="200" as="targetPoint" />
          </mxGeometry>
        </mxCell>
        <mxCell id="QnQLokl2paKiinl1mr7T-67" style="edgeStyle=orthogonalEdgeStyle;rounded=0;orthogonalLoop=1;jettySize=auto;html=1;exitX=0.75;exitY=0;exitDx=0;exitDy=0;endArrow=none;endFill=0;" edge="1" parent="1" source="QnQLokl2paKiinl1mr7T-62">
          <mxGeometry relative="1" as="geometry">
            <mxPoint x="1420" y="243" as="targetPoint" />
          </mxGeometry>
        </mxCell>
        <mxCell id="QnQLokl2paKiinl1mr7T-68" style="edgeStyle=orthogonalEdgeStyle;rounded=0;orthogonalLoop=1;jettySize=auto;html=1;exitX=1;exitY=0;exitDx=0;exitDy=0;endArrow=none;endFill=0;" edge="1" parent="1">
          <mxGeometry relative="1" as="geometry">
            <mxPoint x="1420" y="278" as="targetPoint" />
            <mxPoint x="1277.5" y="282.5" as="sourcePoint" />
            <Array as="points">
              <mxPoint x="1277.5" y="277.5" />
            </Array>
          </mxGeometry>
        </mxCell>
        <mxCell id="QnQLokl2paKiinl1mr7T-62" value="" style="rounded=0;whiteSpace=wrap;html=1;rotation=90;" vertex="1" parent="1">
          <mxGeometry x="1162.5" y="152.5" width="170" height="95" as="geometry" />
        </mxCell>
        <mxCell id="QnQLokl2paKiinl1mr7T-63" value="&lt;div&gt;DECODE&lt;/div&gt;&lt;div&gt;CONTADOR&lt;br&gt;&lt;/div&gt;" style="text;strokeColor=none;align=center;fillColor=none;html=1;verticalAlign=middle;whiteSpace=wrap;rounded=0;fontSize=10;" vertex="1" parent="1">
          <mxGeometry x="1217.5" y="175" width="60" height="30" as="geometry" />
        </mxCell>
        <mxCell id="QnQLokl2paKiinl1mr7T-69" value="" style="edgeStyle=none;orthogonalLoop=1;jettySize=auto;html=1;rounded=0;endArrow=none;endFill=0;" edge="1" parent="1">
          <mxGeometry width="80" relative="1" as="geometry">
            <mxPoint x="1296" y="139.74" as="sourcePoint" />
            <mxPoint x="1420" y="140" as="targetPoint" />
            <Array as="points" />
          </mxGeometry>
        </mxCell>
        <mxCell id="QnQLokl2paKiinl1mr7T-70" value="" style="edgeStyle=none;orthogonalLoop=1;jettySize=auto;html=1;rounded=0;endArrow=none;endFill=0;" edge="1" parent="1">
          <mxGeometry width="80" relative="1" as="geometry">
            <mxPoint x="1295" y="179.74" as="sourcePoint" />
            <mxPoint x="1420" y="180" as="targetPoint" />
            <Array as="points" />
          </mxGeometry>
        </mxCell>
        <mxCell id="QnQLokl2paKiinl1mr7T-71" value="Cont1_SegA" style="text;strokeColor=none;align=center;fillColor=none;html=1;verticalAlign=middle;whiteSpace=wrap;rounded=0;fontSize=10;" vertex="1" parent="1">
          <mxGeometry x="1360" y="95" width="60" height="30" as="geometry" />
        </mxCell>
        <mxCell id="QnQLokl2paKiinl1mr7T-72" value="Cont1_SegB" style="text;strokeColor=none;align=center;fillColor=none;html=1;verticalAlign=middle;whiteSpace=wrap;rounded=0;fontSize=10;" vertex="1" parent="1">
          <mxGeometry x="1360" y="115" width="60" height="30" as="geometry" />
        </mxCell>
        <mxCell id="QnQLokl2paKiinl1mr7T-73" value="Cont1_SegC" style="text;strokeColor=none;align=center;fillColor=none;html=1;verticalAlign=middle;whiteSpace=wrap;rounded=0;fontSize=10;" vertex="1" parent="1">
          <mxGeometry x="1360" y="135" width="60" height="30" as="geometry" />
        </mxCell>
        <mxCell id="QnQLokl2paKiinl1mr7T-74" value="Cont1_SegD" style="text;strokeColor=none;align=center;fillColor=none;html=1;verticalAlign=middle;whiteSpace=wrap;rounded=0;fontSize=10;" vertex="1" parent="1">
          <mxGeometry x="1360" y="155" width="60" height="30" as="geometry" />
        </mxCell>
        <mxCell id="QnQLokl2paKiinl1mr7T-75" value="Cont1_SegE" style="text;strokeColor=none;align=center;fillColor=none;html=1;verticalAlign=middle;whiteSpace=wrap;rounded=0;fontSize=10;" vertex="1" parent="1">
          <mxGeometry x="1365" y="177.5" width="50" height="25" as="geometry" />
        </mxCell>
        <mxCell id="QnQLokl2paKiinl1mr7T-76" value="Cont1_SegF" style="text;strokeColor=none;align=center;fillColor=none;html=1;verticalAlign=middle;whiteSpace=wrap;rounded=0;fontSize=10;" vertex="1" parent="1">
          <mxGeometry x="1360" y="220" width="60" height="30" as="geometry" />
        </mxCell>
        <mxCell id="QnQLokl2paKiinl1mr7T-77" value="Cont1_SegG" style="text;strokeColor=none;align=center;fillColor=none;html=1;verticalAlign=middle;whiteSpace=wrap;rounded=0;fontSize=10;" vertex="1" parent="1">
          <mxGeometry x="1360" y="250" width="60" height="30" as="geometry" />
        </mxCell>
      </root>
    </mxGraphModel>
  </diagram>
</mxfile>
